<svg width="24" height="24" viewBox="0 0 24 24" fill="none" xmlns="http://www.w3.org/2000/svg">
<path d="M22.2026 4.13867H1.79742C0.804703 4.13867 0 4.94337 0 5.93609V8.91448H24V5.93609C24 4.94337 23.1953 4.13867 22.2026 4.13867Z" fill="#82AFFF"/>
<path d="M0 18.0643C0 19.057 0.804703 19.8618 1.79742 19.8618H22.2026C23.1952 19.8618 24 19.057 24 18.0643V15.0859H0V18.0643Z" fill="#73AF00"/>
<path d="M24 9.56641H0V14.4316H24V9.56641Z" fill="#F5F5F5"/>
<path d="M0 9.37967V9.56764H24V9.37967V8.91406H0V9.37967Z" fill="#FF4B55"/>
<path d="M0 14.6216V15.0872H24V14.6216V14.4336H0V14.6216Z" fill="#FF4B55"/>
<path d="M5.31969 8.06553C4.47257 8.06553 3.78589 7.3805 3.78589 6.53642C3.78589 5.68925 4.47252 5.00113 5.31969 5.00113C5.32297 5.00113 5.32616 5.00113 5.32935 5.00117C5.37922 5.00183 5.39671 4.9356 5.35274 4.91202C5.09188 4.77219 4.79417 4.69306 4.47767 4.69536C3.46405 4.70258 2.64069 5.54253 2.65147 6.55616C2.66207 7.55933 3.48219 8.37135 4.49094 8.37135C4.80308 8.37135 5.09661 8.29236 5.35424 8.15445C5.39807 8.13097 5.38035 8.06474 5.33066 8.06544C5.32691 8.06553 5.3233 8.06553 5.31969 8.06553Z" fill="#F5F5F5"/>
<path d="M6.52104 7.64298L6.45255 7.84839L6.23604 7.85003C6.208 7.85021 6.19638 7.88603 6.21893 7.90267L6.39311 8.03129L6.32777 8.23773C6.31933 8.26445 6.34975 8.28657 6.37258 8.27026L6.54874 8.14436L6.7249 8.27026C6.74772 8.28657 6.7781 8.26445 6.76971 8.23773L6.70436 8.03129L6.8785 7.90267C6.90105 7.88603 6.88943 7.85021 6.86139 7.85003L6.64488 7.84839L6.5764 7.64298C6.56754 7.6164 6.52994 7.6164 6.52104 7.64298Z" fill="#F5F5F5"/>
<path d="M8.04643 7.64298L7.97794 7.84839L7.76143 7.85003C7.7334 7.85021 7.72177 7.88603 7.74432 7.90267L7.91846 8.03129L7.85311 8.23773C7.84468 8.26445 7.8751 8.28657 7.89793 8.27026L8.07408 8.14436L8.25024 8.27026C8.27307 8.28657 8.30344 8.26445 8.29505 8.23773L8.22971 8.03129L8.40385 7.90267C8.4264 7.88603 8.41477 7.85021 8.38674 7.85003L8.17022 7.84839L8.10174 7.64298C8.09288 7.6164 8.05524 7.6164 8.04643 7.64298Z" fill="#F5F5F5"/>
<path d="M9.57182 7.64298L9.50333 7.84839L9.28682 7.85003C9.25879 7.85021 9.24716 7.88603 9.26971 7.90267L9.44389 8.03129L9.37855 8.23773C9.37011 8.26445 9.40054 8.28657 9.42336 8.27026L9.59952 8.14436L9.77568 8.27026C9.7985 8.28657 9.82888 8.26445 9.82049 8.23773L9.75514 8.03129L9.92929 7.90267C9.95183 7.88603 9.94021 7.85021 9.91218 7.85003L9.69566 7.84839L9.62718 7.64298C9.61832 7.6164 9.58068 7.6164 9.57182 7.64298Z" fill="#F5F5F5"/>
<path d="M11.0972 7.64298L11.0287 7.84839L10.8122 7.85003C10.7842 7.85021 10.7726 7.88603 10.7951 7.90267L10.9692 8.03129L10.9039 8.23773C10.8955 8.26445 10.9259 8.28657 10.9487 8.27026L11.1249 8.14436L11.301 8.27026C11.3238 8.28657 11.3542 8.26445 11.3458 8.23773L11.2805 8.03129L11.4546 7.90267C11.4772 7.88603 11.4656 7.85021 11.4375 7.85003L11.221 7.84839L11.1525 7.64298C11.1437 7.6164 11.1061 7.6164 11.0972 7.64298Z" fill="#F5F5F5"/>
<path d="M12.6226 7.64298L12.5541 7.84839L12.3376 7.85003C12.3096 7.85021 12.2979 7.88603 12.3205 7.90267L12.4947 8.03129L12.4293 8.23773C12.4209 8.26445 12.4513 8.28657 12.4741 8.27026L12.6503 8.14436L12.8265 8.27026C12.8493 8.28657 12.8797 8.26445 12.8713 8.23773L12.8059 8.03129L12.9801 7.90267C13.0027 7.88603 12.991 7.85021 12.963 7.85003L12.7465 7.84839L12.678 7.64298C12.6691 7.6164 12.6315 7.6164 12.6226 7.64298Z" fill="#F5F5F5"/>
<path d="M8.04643 6.21922L7.97794 6.42463L7.76143 6.42627C7.7334 6.42646 7.72177 6.46227 7.74432 6.47891L7.91846 6.60754L7.85311 6.81397C7.84468 6.84069 7.8751 6.86282 7.89793 6.8465L8.07408 6.7206L8.25024 6.8465C8.27307 6.86282 8.30344 6.84069 8.29505 6.81397L8.22971 6.60754L8.40385 6.47891C8.4264 6.46227 8.41477 6.42646 8.38674 6.42627L8.17022 6.42463L8.10174 6.21922C8.09288 6.19255 8.05524 6.19255 8.04643 6.21922Z" fill="#F5F5F5"/>
<path d="M9.57157 6.21898L9.50309 6.42438L9.28657 6.42603C9.25854 6.42621 9.24692 6.46203 9.26946 6.47867L9.44365 6.60729L9.37831 6.81373C9.36987 6.84045 9.40029 6.86257 9.42312 6.84626L9.59928 6.72035L9.77543 6.84626C9.79826 6.86257 9.82864 6.84045 9.82025 6.81373L9.7549 6.60729L9.92904 6.47867C9.95159 6.46203 9.93996 6.42621 9.91193 6.42603L9.69542 6.42438L9.62693 6.21898C9.61807 6.19231 9.58043 6.19231 9.57157 6.21898Z" fill="#F5F5F5"/>
<path d="M11.097 6.21898L11.0285 6.42438L10.812 6.42603C10.7839 6.42621 10.7723 6.46203 10.7949 6.47867L10.969 6.60729L10.9037 6.81373C10.8952 6.84045 10.9256 6.86257 10.9485 6.84626L11.1246 6.72035L11.3008 6.84626C11.3236 6.86257 11.354 6.84045 11.3456 6.81373L11.2802 6.60729L11.4544 6.47867C11.4769 6.46203 11.4653 6.42621 11.4373 6.42603L11.2208 6.42438L11.1523 6.21898C11.1435 6.19231 11.1058 6.19231 11.097 6.21898Z" fill="#F5F5F5"/>
<path d="M12.6224 6.21898L12.5539 6.42438L12.3374 6.42603C12.3094 6.42621 12.2978 6.46203 12.3203 6.47867L12.4945 6.60729L12.4291 6.81373C12.4207 6.84045 12.4511 6.86257 12.474 6.84626L12.6501 6.72035L12.8263 6.84626C12.8491 6.86257 12.8795 6.84045 12.8711 6.81373L12.8057 6.60729L12.9799 6.47867C13.0025 6.46203 12.9909 6.42621 12.9628 6.42603L12.7463 6.42438L12.6778 6.21898C12.6689 6.19231 12.6313 6.19231 12.6224 6.21898Z" fill="#F5F5F5"/>
<path d="M9.57182 7.64298L9.50333 7.84839L9.28682 7.85003C9.25879 7.85021 9.24716 7.88603 9.26971 7.90267L9.44389 8.03129L9.37855 8.23773C9.37011 8.26445 9.40054 8.28657 9.42336 8.27026L9.59952 8.14436L9.77568 8.27026C9.7985 8.28657 9.82888 8.26445 9.82049 8.23773L9.75514 8.03129L9.92929 7.90267C9.95183 7.88603 9.94021 7.85021 9.91218 7.85003L9.69566 7.84839L9.62718 7.64298C9.61832 7.6164 9.58068 7.6164 9.57182 7.64298Z" fill="#F5F5F5"/>
<path d="M9.57157 4.79532L9.50309 5.00073L9.28657 5.00237C9.25854 5.00256 9.24692 5.03837 9.26946 5.05501L9.44365 5.18364L9.37831 5.39007C9.36987 5.41679 9.40029 5.43892 9.42312 5.42261L9.59928 5.2967L9.77543 5.42261C9.79826 5.43892 9.82864 5.41679 9.82025 5.39007L9.7549 5.18364L9.92904 5.05501C9.95159 5.03837 9.93996 5.00256 9.91193 5.00237L9.69542 5.00073L9.62693 4.79532C9.61807 4.76875 9.58043 4.76875 9.57157 4.79532Z" fill="#F5F5F5"/>
<path d="M11.0972 7.64298L11.0287 7.84839L10.8122 7.85003C10.7842 7.85021 10.7726 7.88603 10.7951 7.90267L10.9692 8.03129L10.9039 8.23773C10.8955 8.26445 10.9259 8.28657 10.9487 8.27026L11.1249 8.14436L11.301 8.27026C11.3238 8.28657 11.3542 8.26445 11.3458 8.23773L11.2805 8.03129L11.4546 7.90267C11.4772 7.88603 11.4656 7.85021 11.4375 7.85003L11.221 7.84839L11.1525 7.64298C11.1437 7.6164 11.1061 7.6164 11.0972 7.64298Z" fill="#F5F5F5"/>
<path d="M12.6226 7.64298L12.5541 7.84839L12.3376 7.85003C12.3096 7.85021 12.2979 7.88603 12.3205 7.90267L12.4947 8.03129L12.4293 8.23773C12.4209 8.26445 12.4513 8.28657 12.4741 8.27026L12.6503 8.14436L12.8265 8.27026C12.8493 8.28657 12.8797 8.26445 12.8713 8.23773L12.8059 8.03129L12.9801 7.90267C13.0027 7.88603 12.991 7.85021 12.963 7.85003L12.7465 7.84839L12.678 7.64298C12.6691 7.6164 12.6315 7.6164 12.6226 7.64298Z" fill="#F5F5F5"/>
<path d="M11.097 4.79532L11.0285 5.00073L10.812 5.00237C10.7839 5.00256 10.7723 5.03837 10.7949 5.05501L10.969 5.18364L10.9037 5.39007C10.8952 5.41679 10.9256 5.43892 10.9485 5.42261L11.1246 5.2967L11.3008 5.42261C11.3236 5.43892 11.354 5.41679 11.3456 5.39007L11.2802 5.18364L11.4544 5.05501C11.4769 5.03837 11.4653 5.00256 11.4373 5.00237L11.2208 5.00073L11.1523 4.79532C11.1435 4.76875 11.1058 4.76875 11.097 4.79532Z" fill="#F5F5F5"/>
<path d="M12.6224 4.79532L12.5539 5.00073L12.3374 5.00237C12.3094 5.00256 12.2978 5.03837 12.3203 5.05501L12.4945 5.18364L12.4291 5.39007C12.4207 5.41679 12.4511 5.43892 12.474 5.42261L12.6501 5.2967L12.8263 5.42261C12.8491 5.43892 12.8795 5.41679 12.8711 5.39007L12.8057 5.18364L12.9799 5.05501C13.0025 5.03837 12.9909 5.00256 12.9628 5.00237L12.7463 5.00073L12.6778 4.79532C12.6689 4.76875 12.6313 4.76875 12.6224 4.79532Z" fill="#F5F5F5"/>
</svg>
